# Blender 3.4.0
# www.blender.org
o Cube
v -1.000000 1.000000 1.000000
v -1.000000 -1.000000 1.000000
v -1.000000 4.000000 -1.000000
v -1.000000 -1.000000 -1.000000
v 1.000000 1.000000 1.000000
v 1.000000 -1.000000 1.000000
v 1.000000 4.000000 -1.000000
v 2.000000 -1.000000 -1.000000
vn -0.0000 0.5547 0.8321
vn -0.0000 -0.0000 -1.0000
vn 0.9407 0.1881 0.2822
vn -0.0000 -1.0000 -0.0000
vn -1.0000 -0.0000 -0.0000
vn -0.0000 -0.0000 1.0000
vn 0.8944 -0.0000 0.4472
vt 0.693275 0.337662
vt 0.556503 0.199509
vt 0.555812 0.336972
vt 0.553396 0.818091
vt 0.898779 0.476160
vt 0.555122 0.474434
vt 0.295708 0.274188
vt 0.770100 0.223669
vt 0.419040 0.198818
vt 0.418350 0.336281
vt 0.048589 0.292779
vt 0.975604 0.362168
vt 0.415933 0.817401
vt 0.348928 0.473399
s 0
f 5/8/1 3/5/1 1/1/1
f 4/6/2 7/13/2 8/14/2
f 8/14/3 7/11/3 5/7/3
f 6/10/4 4/6/4 8/14/4
f 1/1/5 4/6/5 2/3/5
f 5/9/6 2/3/6 6/10/6
f 5/7/7 6/10/7 8/14/7
f 5/8/1 7/12/1 3/5/1
f 4/6/2 3/4/2 7/13/2
f 6/10/4 2/3/4 4/6/4
f 1/1/5 3/5/5 4/6/5
f 5/9/6 1/2/6 2/3/6
